<?xml version="1.0" encoding="UTF-8" standalone="no"?>
<!DOCTYPE svg PUBLIC "-//W3C//DTD SVG 1.1//EN"
 "http://www.w3.org/Graphics/SVG/1.1/DTD/svg11.dtd">
<!-- Generated by graphviz version 2.40.1 (20161225.0304)
 -->
<!-- Title: G Pages: 1 -->
<svg width="786pt" height="635pt"
 viewBox="0.00 0.00 786.00 635.00" xmlns="http://www.w3.org/2000/svg" xmlns:xlink="http://www.w3.org/1999/xlink">
<g id="graph0" class="graph" transform="scale(1 1) rotate(0) translate(4 631)">
<title>G</title>
<polygon fill="#23272a" stroke="transparent" points="-4,4 -4,-631 782,-631 782,4 -4,4"/>
<g id="clust1" class="cluster">
<title>cluster_family_0</title>
<polygon fill="#2c2f33" stroke="#2c2f33" points="289,-180 289,-377 770,-377 770,-180 289,-180"/>
<text text-anchor="start" x="297" y="-359.6" font-family="Helvetica, Arial, sans-serif" font-weight="bold" font-size="16.00" fill="#ffffff">The Frat House Femly</text>
</g>
<g id="clust4" class="cluster">
<title>cluster_family_1</title>
<polygon fill="#2c2f33" stroke="#2c2f33" points="289,-530 289,-619 770,-619 770,-530 289,-530"/>
<text text-anchor="start" x="297" y="-601.6" font-family="Helvetica, Arial, sans-serif" font-weight="bold" font-size="16.00" fill="#ffffff">The Pretend Family</text>
</g>
<g id="clust7" class="cluster">
<title>cluster_family_2</title>
<polygon fill="#2c2f33" stroke="#2c2f33" points="289,-35 289,-172 561,-172 561,-35 289,-35"/>
<text text-anchor="start" x="297" y="-154.6" font-family="Helvetica, Arial, sans-serif" font-weight="bold" font-size="16.00" fill="#ffffff">Claire Trying to Adopt Minerva</text>
</g>
<g id="clust10" class="cluster">
<title>cluster_family_3</title>
<polygon fill="#2c2f33" stroke="#2c2f33" points="8,-8 8,-145 280,-145 280,-8 8,-8"/>
<text text-anchor="start" x="16" y="-127.6" font-family="Helvetica, Arial, sans-serif" font-weight="bold" font-size="16.00" fill="#ffffff">The Baas Family (Minimal)</text>
</g>
<g id="clust14" class="cluster">
<title>cluster_family_4</title>
<polygon fill="#2c2f33" stroke="#2c2f33" points="498,-385 498,-522 770,-522 770,-385 498,-385"/>
<text text-anchor="start" x="506" y="-504.6" font-family="Helvetica, Arial, sans-serif" font-weight="bold" font-size="16.00" fill="#ffffff">The SCU Children</text>
</g>
<!-- union_0 -->
<g id="node1" class="node">
<title>union_0</title>
<ellipse fill="#d25252" stroke="#ffffff" cx="511.5" cy="-262" rx="3.5" ry="3.5"/>
</g>
<!-- siblings_0 -->
<g id="node5" class="node">
<title>siblings_0</title>
<polygon fill="#d25252" stroke="#cccccc" stroke-width="0" points="551,-262.5 544,-262.5 544,-261.5 551,-261.5 551,-262.5"/>
</g>
<!-- union_0&#45;&gt;siblings_0 -->
<g id="edge4" class="edge">
<title>union_0&#45;&gt;siblings_0</title>
<path fill="none" stroke="#d25252" d="M515.0834,-262C521.9128,-262 536.7324,-262 543.7154,-262"/>
</g>
<!-- Mackenzie Hayes -->
<g id="node2" class="node">
<title>Mackenzie Hayes</title>
<g id="a_node2"><a xlink:title="undefined &#10;Added Invalid Date&#10;&#10;&#10;">
<polygon fill="#36393f" stroke="#cccccc" points="479,-340 299,-340 299,-298 479,-298 479,-340"/>
<text text-anchor="start" x="333.77" y="-321.4" font-family="Helvetica, Arial, sans-serif" font-size="14.00" fill="#ffffff">Mackenzie Hayes</text>
<text text-anchor="start" x="357.057" y="-307" font-family="Helvetica, Arial, sans-serif" font-size="10.00" fill="#aaaaaa">Former Sheriff</text>
</a>
</g>
</g>
<!-- Mackenzie Hayes&#45;&gt;union_0 -->
<g id="edge1" class="edge">
<title>Mackenzie Hayes&#45;&gt;union_0</title>
<path fill="none" stroke="#d25252" d="M479.1165,-319C498.3477,-319 513,-319 513,-319 513,-319 513,-277.666 513,-265.3949"/>
</g>
<!-- union_1 -->
<g id="node7" class="node">
<title>union_1</title>
<ellipse fill="#ccdf32" stroke="#ffffff" cx="511.5" cy="-561" rx="3.5" ry="3.5"/>
</g>
<!-- Mackenzie Hayes&#45;&gt;union_1 -->
<g id="edge6" class="edge">
<title>Mackenzie Hayes&#45;&gt;union_1</title>
<path fill="none" stroke="#ccdf32" stroke-dasharray="5,2" d="M479.4002,-308.5C488.2322,-308.5 494,-308.5 494,-308.5 494,-308.5 494,-559.8333 494,-559.8333 494,-559.8333 503.0405,-559.8333 508.1258,-559.8333"/>
</g>
<!-- union_4 -->
<g id="node19" class="node">
<title>union_4</title>
<ellipse fill="#6897bb" stroke="#ffffff" cx="511.5" cy="-413" rx="3.5" ry="3.5"/>
</g>
<!-- Mackenzie Hayes&#45;&gt;union_4 -->
<g id="edge19" class="edge">
<title>Mackenzie Hayes&#45;&gt;union_4</title>
<path fill="none" stroke="#6897bb" stroke-dasharray="5,2" d="M479.2644,-329.5C497.3914,-329.5 511,-329.5 511,-329.5 511,-329.5 511,-393.4297 511,-409.4121"/>
</g>
<!-- Daisy Dukakis -->
<g id="node3" class="node">
<title>Daisy Dukakis</title>
<polygon fill="#36393f" stroke="#cccccc" points="479,-280 299,-280 299,-244 479,-244 479,-280"/>
<text text-anchor="middle" x="389" y="-257.8" font-family="Helvetica, Arial, sans-serif" font-size="14.00" fill="#ffffff">Daisy Dukakis</text>
</g>
<!-- Daisy Dukakis&#45;&gt;union_0 -->
<g id="edge2" class="edge">
<title>Daisy Dukakis&#45;&gt;union_0</title>
<path fill="none" stroke="#d25252" d="M479.3146,-262C491.9376,-262 502.4166,-262 507.7333,-262"/>
</g>
<!-- Anita May -->
<g id="node4" class="node">
<title>Anita May</title>
<polygon fill="#36393f" stroke="#cccccc" points="479,-226 299,-226 299,-190 479,-190 479,-226"/>
<text text-anchor="middle" x="389" y="-203.8" font-family="Helvetica, Arial, sans-serif" font-size="14.00" fill="#ffffff">Anita May</text>
</g>
<!-- Anita May&#45;&gt;union_0 -->
<g id="edge3" class="edge">
<title>Anita May&#45;&gt;union_0</title>
<path fill="none" stroke="#d25252" d="M479.0383,-208C497.7943,-208 512,-208 512,-208 512,-208 512,-246.4434 512,-258.4569"/>
</g>
<!-- Minerva Maat -->
<g id="node6" class="node">
<title>Minerva Maat</title>
<g id="a_node6"><a xlink:title="undefined &#10;Added Invalid Date&#10;&#10;&#10;">
<polygon fill="#36393f" stroke="#cccccc" points="760,-283 580,-283 580,-241 760,-241 760,-283"/>
<text text-anchor="start" x="628.1087" y="-264.4" font-family="Helvetica, Arial, sans-serif" font-size="14.00" fill="#ffffff">Minerva Maat</text>
<text text-anchor="start" x="622.7185" y="-250" font-family="Helvetica, Arial, sans-serif" font-size="10.00" fill="#aaaaaa">Wants Her Allowance</text>
</a>
</g>
</g>
<!-- siblings_0&#45;&gt;Minerva Maat -->
<g id="edge5" class="edge">
<title>siblings_0&#45;&gt;Minerva Maat</title>
<path fill="none" stroke="#d25252" d="M551.0341,-262C551.0341,-262 569.8106,-262 569.8106,-262"/>
<polygon fill="#d25252" stroke="#d25252" points="577.8105,-252 577.8107,-272 573.8107,-272.0001 573.8105,-252.0001 577.8105,-252"/>
<polyline fill="none" stroke="#d25252" points="579.8106,-262 569.8106,-262.0001 "/>
</g>
<!-- siblings_1 -->
<g id="node9" class="node">
<title>siblings_1</title>
<polygon fill="#ccdf32" stroke="#cccccc" stroke-width="0" points="551,-561.5 544,-561.5 544,-560.5 551,-560.5 551,-561.5"/>
</g>
<!-- union_1&#45;&gt;siblings_1 -->
<g id="edge8" class="edge">
<title>union_1&#45;&gt;siblings_1</title>
<path fill="none" stroke="#ccdf32" d="M515.0834,-561C521.9128,-561 536.7324,-561 543.7154,-561"/>
</g>
<!-- Jeffrey Price -->
<g id="node8" class="node">
<title>Jeffrey Price</title>
<g id="a_node8"><a xlink:title="undefined &#10;Added Invalid Date&#10;&#10;&#10;">
<polygon fill="#36393f" stroke="#cccccc" points="479,-582 299,-582 299,-540 479,-540 479,-582"/>
<text text-anchor="start" x="350.108" y="-563.4" font-family="Helvetica, Arial, sans-serif" font-size="14.00" fill="#ffffff">Jeffrey Price</text>
<text text-anchor="start" x="314.8305" y="-549" font-family="Helvetica, Arial, sans-serif" font-size="10.00" fill="#aaaaaa">Former International Arms Dealer</text>
</a>
</g>
</g>
<!-- Jeffrey Price&#45;&gt;union_1 -->
<g id="edge7" class="edge">
<title>Jeffrey Price&#45;&gt;union_1</title>
<path fill="none" stroke="#ccdf32" stroke-dasharray="5,2" d="M479.3146,-562.1667C492.2245,-562.1667 502.8918,-562.1667 508.0877,-562.1667"/>
</g>
<!-- Alexandria Bennett -->
<g id="node10" class="node">
<title>Alexandria Bennett</title>
<g id="a_node10"><a xlink:title="undefined &#10;Added Invalid Date&#10;&#10;&#10;">
<polygon fill="#36393f" stroke="#cccccc" points="760,-582 580,-582 580,-540 760,-540 760,-582"/>
<text text-anchor="start" x="610.8689" y="-563.4" font-family="Helvetica, Arial, sans-serif" font-size="14.00" fill="#ffffff">Alexandria Bennett</text>
<text text-anchor="start" x="630.543" y="-549" font-family="Helvetica, Arial, sans-serif" font-size="10.00" fill="#aaaaaa">Pretend Daughter</text>
</a>
</g>
</g>
<!-- siblings_1&#45;&gt;Alexandria Bennett -->
<g id="edge9" class="edge">
<title>siblings_1&#45;&gt;Alexandria Bennett</title>
<path fill="none" stroke="#ccdf32" d="M551.0341,-561C551.0341,-561 569.8106,-561 569.8106,-561"/>
<polygon fill="#ccdf32" stroke="#ccdf32" points="577.8105,-551 577.8107,-571 573.8107,-571.0001 573.8105,-551.0001 577.8105,-551"/>
<polyline fill="none" stroke="#ccdf32" points="579.8106,-561 569.8106,-561.0001 "/>
</g>
<!-- union_2 -->
<g id="node11" class="node">
<title>union_2</title>
<ellipse fill="#629755" stroke="#ffffff" cx="511.5" cy="-117" rx="3.5" ry="3.5"/>
</g>
<!-- siblings_2 -->
<g id="node14" class="node">
<title>siblings_2</title>
<polygon fill="#629755" stroke="#cccccc" stroke-width="0" points="551,-117.5 544,-117.5 544,-116.5 551,-116.5 551,-117.5"/>
</g>
<!-- union_2&#45;&gt;siblings_2 -->
<g id="edge12" class="edge">
<title>union_2&#45;&gt;siblings_2</title>
<path fill="none" stroke="#629755" d="M515.0834,-117C521.9128,-117 536.7324,-117 543.7154,-117"/>
</g>
<!-- Claire Everly -->
<g id="node12" class="node">
<title>Claire Everly</title>
<polygon fill="#36393f" stroke="#cccccc" points="479,-135 299,-135 299,-99 479,-99 479,-135"/>
<text text-anchor="middle" x="389" y="-112.8" font-family="Helvetica, Arial, sans-serif" font-size="14.00" fill="#ffffff">Claire Everly</text>
</g>
<!-- Claire Everly&#45;&gt;union_2 -->
<g id="edge10" class="edge">
<title>Claire Everly&#45;&gt;union_2</title>
<path fill="none" stroke="#629755" d="M479.3146,-117C491.9376,-117 502.4166,-117 507.7333,-117"/>
</g>
<!-- Mina Price -->
<g id="node13" class="node">
<title>Mina Price</title>
<polygon fill="#36393f" stroke="#cccccc" points="479,-81 299,-81 299,-45 479,-45 479,-81"/>
<text text-anchor="middle" x="389" y="-58.8" font-family="Helvetica, Arial, sans-serif" font-size="14.00" fill="#ffffff">Mina Price</text>
</g>
<!-- Mina Price&#45;&gt;union_2 -->
<g id="edge11" class="edge">
<title>Mina Price&#45;&gt;union_2</title>
<path fill="none" stroke="#629755" d="M479.0383,-63C497.7943,-63 512,-63 512,-63 512,-63 512,-101.4434 512,-113.4569"/>
</g>
<!-- siblings_2&#45;&gt;Minerva Maat -->
<g id="edge13" class="edge">
<title>siblings_2&#45;&gt;Minerva Maat</title>
<path fill="none" stroke="#629755" stroke-dasharray="5,2" d="M548,-117.8573C548,-129.291 548,-251.25 548,-251.25 548,-251.25 569.7356,-251.25 569.7356,-251.25"/>
<polygon fill="#629755" stroke="#629755" points="577.7355,-241.25 577.7357,-261.25 573.7357,-261.2501 573.7355,-241.2501 577.7355,-241.25"/>
<polyline fill="none" stroke="#629755" points="579.7356,-251.25 569.7356,-251.2501 "/>
</g>
<!-- union_3 -->
<g id="node15" class="node">
<title>union_3</title>
<ellipse fill="#cc7832" stroke="#ffffff" cx="230.5" cy="-90" rx="3.5" ry="3.5"/>
</g>
<!-- siblings_3 -->
<g id="node18" class="node">
<title>siblings_3</title>
<polygon fill="#cc7832" stroke="#cccccc" stroke-width="0" points="270,-90.5 263,-90.5 263,-89.5 270,-89.5 270,-90.5"/>
</g>
<!-- union_3&#45;&gt;siblings_3 -->
<g id="edge16" class="edge">
<title>union_3&#45;&gt;siblings_3</title>
<path fill="none" stroke="#cc7832" d="M234.0834,-90C240.9128,-90 255.7324,-90 262.7154,-90"/>
</g>
<!-- Sam Baas -->
<g id="node16" class="node">
<title>Sam Baas</title>
<polygon fill="#36393f" stroke="#cccccc" points="198,-108 18,-108 18,-72 198,-72 198,-108"/>
<text text-anchor="middle" x="108" y="-85.8" font-family="Helvetica, Arial, sans-serif" font-size="14.00" fill="#ffffff">Sam Baas</text>
</g>
<!-- Sam Baas&#45;&gt;union_3 -->
<g id="edge14" class="edge">
<title>Sam Baas&#45;&gt;union_3</title>
<path fill="none" stroke="#cc7832" d="M198.3146,-90C210.9376,-90 221.4166,-90 226.7333,-90"/>
</g>
<!-- Dante Wolf -->
<g id="node17" class="node">
<title>Dante Wolf</title>
<polygon fill="#36393f" stroke="#cccccc" points="198,-54 18,-54 18,-18 198,-18 198,-54"/>
<text text-anchor="middle" x="108" y="-31.8" font-family="Helvetica, Arial, sans-serif" font-size="14.00" fill="#ffffff">Dante Wolf</text>
</g>
<!-- Dante Wolf&#45;&gt;union_3 -->
<g id="edge15" class="edge">
<title>Dante Wolf&#45;&gt;union_3</title>
<path fill="none" stroke="#cc7832" stroke-dasharray="5,2" d="M198.0383,-49.5C216.7943,-49.5 231,-49.5 231,-49.5 231,-49.5 231,-76.2363 231,-86.2625"/>
</g>
<!-- siblings_3&#45;&gt;Anita May -->
<g id="edge17" class="edge">
<title>siblings_3&#45;&gt;Anita May</title>
<path fill="none" stroke="#cc7832" d="M267,-90.7759C267,-101.1237 267,-211.5 267,-211.5 267,-211.5 288.7356,-211.5 288.7356,-211.5"/>
<polygon fill="#cc7832" stroke="#cc7832" points="296.7355,-201.5 296.7357,-221.5 292.7357,-221.5001 292.7355,-201.5001 296.7355,-201.5"/>
<polyline fill="none" stroke="#cc7832" points="298.7356,-211.5 288.7356,-211.5001 "/>
</g>
<!-- siblings_3&#45;&gt;Mina Price -->
<g id="edge18" class="edge">
<title>siblings_3&#45;&gt;Mina Price</title>
<path fill="none" stroke="#cc7832" d="M267,-89.4199C267,-86.8359 267,-76.5 267,-76.5 267,-76.5 288.7356,-76.5 288.7356,-76.5"/>
<polygon fill="#cc7832" stroke="#cc7832" points="296.7355,-66.5 296.7357,-86.5 292.7357,-86.5001 292.7355,-66.5001 296.7355,-66.5"/>
<polyline fill="none" stroke="#cc7832" points="298.7356,-76.5 288.7356,-76.5001 "/>
</g>
<!-- siblings_4 -->
<g id="node20" class="node">
<title>siblings_4</title>
<polygon fill="#6897bb" stroke="#cccccc" stroke-width="0" points="551,-413.5 544,-413.5 544,-412.5 551,-412.5 551,-413.5"/>
</g>
<!-- union_4&#45;&gt;siblings_4 -->
<g id="edge20" class="edge">
<title>union_4&#45;&gt;siblings_4</title>
<path fill="none" stroke="#6897bb" d="M515.0834,-413C521.9128,-413 536.7324,-413 543.7154,-413"/>
</g>
<!-- Winston Walker -->
<g id="node21" class="node">
<title>Winston Walker</title>
<polygon fill="#36393f" stroke="#cccccc" points="760,-431 580,-431 580,-395 760,-395 760,-431"/>
<text text-anchor="middle" x="670" y="-408.8" font-family="Helvetica, Arial, sans-serif" font-size="14.00" fill="#ffffff">Winston Walker</text>
</g>
<!-- siblings_4&#45;&gt;Winston Walker -->
<g id="edge21" class="edge">
<title>siblings_4&#45;&gt;Winston Walker</title>
<path fill="none" stroke="#6897bb" stroke-dasharray="5,2" d="M551.0341,-413C551.0341,-413 569.8106,-413 569.8106,-413"/>
<polygon fill="#6897bb" stroke="#6897bb" points="577.8105,-403 577.8107,-423 573.8107,-423.0001 573.8105,-403.0001 577.8105,-403"/>
<polyline fill="none" stroke="#6897bb" points="579.8106,-413 569.8106,-413.0001 "/>
</g>
<!-- Flop Dugong -->
<g id="node22" class="node">
<title>Flop Dugong</title>
<polygon fill="#36393f" stroke="#cccccc" points="760,-485 580,-485 580,-449 760,-449 760,-485"/>
<text text-anchor="middle" x="670" y="-462.8" font-family="Helvetica, Arial, sans-serif" font-size="14.00" fill="#ffffff">Flop Dugong</text>
</g>
<!-- siblings_4&#45;&gt;Flop Dugong -->
<g id="edge22" class="edge">
<title>siblings_4&#45;&gt;Flop Dugong</title>
<path fill="none" stroke="#6897bb" stroke-dasharray="5,2" d="M548,-413.6064C548,-419.5391 548,-467 548,-467 548,-467 569.7356,-467 569.7356,-467"/>
<polygon fill="#6897bb" stroke="#6897bb" points="577.7355,-457 577.7357,-477 573.7357,-477.0001 573.7355,-457.0001 577.7355,-457"/>
<polyline fill="none" stroke="#6897bb" points="579.7356,-467 569.7356,-467.0001 "/>
</g>
<!-- Balto Connelly -->
<g id="node23" class="node">
<title>Balto Connelly</title>
<g id="a_node23"><a xlink:title="undefined &#10;Added Invalid Date&#10;&#10;&#10;">
<polygon fill="#36393f" stroke="#cccccc" points="198,-197 18,-197 18,-155 198,-155 198,-197"/>
<text text-anchor="start" x="62.8801" y="-178.4" font-family="Helvetica, Arial, sans-serif" font-size="14.00" fill="#ffffff">Balto Connelly</text>
<text text-anchor="start" x="83.8245" y="-164" font-family="Helvetica, Arial, sans-serif" font-size="10.00" fill="#aaaaaa">A Grandpa</text>
</a>
</g>
</g>
</g>
</svg>
